<svg xmlns="http://www.w3.org/2000/svg" viewBox="0 0 24 24" fill="none" stroke="currentColor" stroke-width="2" stroke-linecap="round" stroke-linejoin="round">
  <path d="M9.4 1l1.2 3.4a8 8 0 0 1 2.8 0L14.6 1h2.8l-1.2 3.4a8 8 0 0 1 1.4 2.4L22 7.6v2.8l-3.4 1.2a8 8 0 0 1 0 2.8L22 15.6v2.8l-3.4 1.2a8 8 0 0 1-1.4 2.4L17.4 23h-2.8l-1.2-3.4a8 8 0 0 1-2.8 0L9.4 23H6.6l1.2-3.4a8 8 0 0 1-1.4-2.4L2 18.4v-2.8l3.4-1.2a8 8 0 0 1 0-2.8L2 9.6V6.8l3.4-1.2a8 8 0 0 1 1.4-2.4L6.6 1z" />
  <circle cx="12" cy="12" r="3" />
</svg>
